<svg width="284" height="125" viewBox="0 0 284 125" fill="none" xmlns="http://www.w3.org/2000/svg">
<path d="M54 12L28 20L1 123H83.5L92 95H45.5L71 1H35L54 12Z" fill="#2D53A0" stroke="#2433BF"/>
<path d="M87 123L95.5491 95H261L252.451 123H87Z" fill="#F8D93C" stroke="#2433BF"/>
<path d="M158.5 20.4444L162.5 1.44436C162.5 1.44436 103 0.444444 97 1.44444C91 2.44444 81.5 8.44426 76 20.4444C71.1184 42.3137 67.8816 53.5749 63 75.4443C63.9578 82.8812 67.3581 86.6587 76 89.4444H139.5L144.5 71.4444H108C103.564 69.0627 101.837 67.1356 103 60.4444L109.5 35.4444C111.638 25.8608 114.19 23.3493 119.5 20.4444H158.5Z" fill="#2D53A0" stroke="#2433BF"/>
<path d="M184 89H146L164.5 20L189 12L170.5 1H207.5L216.5 36.5L245 1H282.5L259 89H222L233.5 41.5L205.5 76.5L196.5 41.5L184 89Z" fill="#2D53A0" stroke="#2433BF"/>
<path d="M97.616 119L100.88 103.544H106.04L103.592 115.064H110.216L109.4 119H97.616ZM120.787 119.24C119.459 119.24 118.291 119.048 117.283 118.664C116.291 118.264 115.515 117.656 114.955 116.84C114.411 116.008 114.139 114.944 114.139 113.648C114.139 113.28 114.155 112.904 114.187 112.52C114.235 112.136 114.307 111.728 114.403 111.296C114.819 109.36 115.435 107.808 116.251 106.64C117.083 105.472 118.147 104.624 119.443 104.096C120.755 103.568 122.339 103.304 124.195 103.304C126.243 103.304 127.859 103.76 129.043 104.672C130.243 105.584 130.843 107.008 130.843 108.944C130.843 109.296 130.819 109.672 130.771 110.072C130.739 110.456 130.675 110.864 130.579 111.296C130.179 113.2 129.563 114.736 128.731 115.904C127.915 117.072 126.851 117.92 125.539 118.448C124.243 118.976 122.659 119.24 120.787 119.24ZM121.723 114.872C122.715 114.872 123.491 114.592 124.051 114.032C124.611 113.472 125.027 112.56 125.299 111.296C125.443 110.624 125.515 110.064 125.515 109.616C125.515 108.912 125.339 108.416 124.987 108.128C124.635 107.84 124.059 107.696 123.259 107.696C122.251 107.696 121.467 107.968 120.907 108.512C120.347 109.04 119.931 109.968 119.659 111.296C119.515 111.936 119.443 112.48 119.443 112.928C119.443 113.616 119.619 114.112 119.971 114.416C120.339 114.72 120.923 114.872 121.723 114.872ZM141.688 119.24C139.464 119.24 137.696 118.744 136.384 117.752C135.088 116.744 134.44 115.272 134.44 113.336C134.44 112.728 134.512 112.064 134.656 111.344C135.216 108.736 136.392 106.744 138.184 105.368C139.992 103.992 142.416 103.304 145.456 103.304C147.312 103.304 148.888 103.536 150.184 104L149.248 108.392C148.656 108.136 147.992 107.952 147.256 107.84C146.536 107.728 145.744 107.672 144.88 107.672C143.52 107.672 142.416 107.952 141.568 108.512C140.736 109.072 140.184 110.016 139.912 111.344C139.848 111.648 139.8 111.928 139.768 112.184C139.736 112.44 139.72 112.68 139.72 112.904C139.72 113.64 139.944 114.152 140.392 114.44C140.84 114.728 141.576 114.872 142.6 114.872C143.304 114.872 143.928 114.792 144.472 114.632L144.808 113.048H142L142.672 109.904H149.776L148.096 117.776C147.392 118.192 146.504 118.544 145.432 118.832C144.36 119.104 143.112 119.24 141.688 119.24ZM152.421 119L155.685 103.544H160.845L157.581 119H152.421ZM167.779 119.24C166.739 119.24 165.747 119.152 164.803 118.976C163.859 118.8 163.083 118.552 162.475 118.232L163.339 114.2C164.011 114.552 164.771 114.84 165.619 115.064C166.483 115.288 167.291 115.4 168.043 115.4C168.683 115.4 169.187 115.336 169.555 115.208C169.939 115.08 170.163 114.84 170.227 114.488C170.307 114.088 170.107 113.8 169.627 113.624C169.147 113.432 168.443 113.168 167.515 112.832C166.475 112.448 165.683 111.976 165.139 111.416C164.595 110.84 164.323 110.104 164.323 109.208C164.323 108.84 164.371 108.456 164.467 108.056C164.819 106.392 165.603 105.184 166.819 104.432C168.051 103.68 169.811 103.304 172.099 103.304C172.643 103.304 173.211 103.344 173.803 103.424C174.411 103.488 174.987 103.576 175.531 103.688C176.075 103.784 176.531 103.896 176.899 104.024L176.035 108.08C175.299 107.76 174.603 107.536 173.947 107.408C173.291 107.264 172.683 107.192 172.123 107.192C171.723 107.192 171.339 107.216 170.971 107.264C170.603 107.296 170.299 107.384 170.059 107.528C169.835 107.656 169.723 107.864 169.723 108.152C169.723 108.408 169.907 108.608 170.275 108.752C170.659 108.88 171.259 109.064 172.075 109.304C173.435 109.704 174.371 110.24 174.883 110.912C175.411 111.584 175.675 112.344 175.675 113.192C175.675 113.608 175.627 114.032 175.531 114.464C175.227 115.904 174.443 117.064 173.179 117.944C171.931 118.808 170.131 119.24 167.779 119.24ZM182.314 119L184.786 107.312H180.658L181.45 103.544H194.89L194.098 107.312H189.946L187.474 119H182.314ZM195.695 119L198.959 103.544H204.119L200.855 119H195.695ZM214.269 119.24C212.781 119.24 211.477 119.016 210.357 118.568C209.253 118.104 208.389 117.432 207.765 116.552C207.141 115.656 206.829 114.56 206.829 113.264C206.829 112.656 206.901 112.008 207.045 111.32C207.605 108.696 208.717 106.704 210.381 105.344C212.045 103.984 214.461 103.304 217.629 103.304C218.573 103.304 219.413 103.376 220.149 103.52C220.901 103.664 221.597 103.872 222.237 104.144L221.277 108.632C220.637 108.296 219.997 108.056 219.357 107.912C218.733 107.752 217.965 107.672 217.053 107.672C215.757 107.672 214.709 107.952 213.909 108.512C213.109 109.056 212.573 109.992 212.301 111.32C212.253 111.576 212.213 111.816 212.181 112.04C212.149 112.264 212.133 112.472 212.133 112.664C212.133 113.48 212.397 114.056 212.925 114.392C213.469 114.712 214.349 114.872 215.565 114.872C216.349 114.872 217.117 114.8 217.869 114.656C218.637 114.496 219.413 114.256 220.197 113.936L219.237 118.448C218.485 118.704 217.709 118.896 216.909 119.024C216.125 119.168 215.245 119.24 214.269 119.24ZM228.845 119.24C227.805 119.24 226.813 119.152 225.869 118.976C224.925 118.8 224.149 118.552 223.541 118.232L224.405 114.2C225.077 114.552 225.837 114.84 226.685 115.064C227.549 115.288 228.357 115.4 229.109 115.4C229.749 115.4 230.253 115.336 230.621 115.208C231.005 115.08 231.229 114.84 231.293 114.488C231.373 114.088 231.173 113.8 230.693 113.624C230.213 113.432 229.509 113.168 228.581 112.832C227.541 112.448 226.749 111.976 226.205 111.416C225.661 110.84 225.389 110.104 225.389 109.208C225.389 108.84 225.437 108.456 225.533 108.056C225.885 106.392 226.669 105.184 227.885 104.432C229.117 103.68 230.877 103.304 233.165 103.304C233.709 103.304 234.277 103.344 234.869 103.424C235.477 103.488 236.053 103.576 236.597 103.688C237.141 103.784 237.597 103.896 237.965 104.024L237.101 108.08C236.365 107.76 235.669 107.536 235.013 107.408C234.357 107.264 233.749 107.192 233.189 107.192C232.789 107.192 232.405 107.216 232.037 107.264C231.669 107.296 231.365 107.384 231.125 107.528C230.901 107.656 230.789 107.864 230.789 108.152C230.789 108.408 230.973 108.608 231.341 108.752C231.725 108.88 232.325 109.064 233.141 109.304C234.501 109.704 235.437 110.24 235.949 110.912C236.477 111.584 236.741 112.344 236.741 113.192C236.741 113.608 236.693 114.032 236.597 114.464C236.293 115.904 235.509 117.064 234.245 117.944C232.997 118.808 231.197 119.24 228.845 119.24Z" fill="#2D53A0"/>
</svg>
